<?xml version="1.0" encoding="utf-8"?>
<!-- Generator: Adobe Illustrator 27.2.0, SVG Export Plug-In . SVG Version: 6.00 Build 0)  -->
<svg version="1.1" id="Layer_1" xmlns="http://www.w3.org/2000/svg" xmlns:xlink="http://www.w3.org/1999/xlink" x="0px" y="0px"
	 viewBox="0 0 60 60" style="enable-background:new 0 0 60 60;" xml:space="preserve">
<style type="text/css">
	.st0{fill:none;stroke:#FFFFFF;stroke-width:4.252;stroke-linecap:round;stroke-linejoin:round;}
</style>
<g>
	<path class="st0" d="M52.5,23.37c-1.17,0-2.13,0.95-2.13,2.13v24.87H9.63V9.63H34.5c1.17,0,2.13-0.95,2.13-2.13
		s-0.95-2.13-2.13-2.13h-27c-1.17,0-2.13,0.95-2.13,2.13v45c0,1.17,0.95,2.13,2.13,2.13h45c1.17,0,2.13-0.95,2.13-2.13v-27
		C54.63,24.33,53.67,23.37,52.5,23.37z"/>
	<path class="st0" d="M18.63,25.5c0-1.17-0.95-2.13-2.13-2.13s-2.13,0.95-2.13,2.13v18c0,0.14,0.01,0.28,0.04,0.42
		c0.01,0.06,0.04,0.12,0.05,0.18c0.02,0.07,0.04,0.15,0.07,0.22c0.03,0.07,0.07,0.14,0.11,0.2c0.03,0.05,0.05,0.11,0.09,0.16
		c0.16,0.23,0.36,0.43,0.59,0.59c0.05,0.03,0.1,0.05,0.15,0.08c0.07,0.04,0.14,0.08,0.21,0.11c0.07,0.03,0.14,0.04,0.21,0.06
		c0.06,0.02,0.12,0.04,0.19,0.06c0.14,0.03,0.28,0.04,0.42,0.04h18c1.17,0,2.13-0.95,2.13-2.13s-0.95-2.13-2.13-2.13H21.63L54,9
		c0.83-0.83,0.83-2.18,0-3.01C53.17,5.17,51.83,5.17,51,6L18.63,38.37V25.5z"/>
</g>
</svg>
