<?xml version="1.0" encoding="utf-8"?>
<!-- Generator: Adobe Illustrator 27.2.0, SVG Export Plug-In . SVG Version: 6.00 Build 0)  -->
<svg version="1.1" id="Layer_1" xmlns="http://www.w3.org/2000/svg" xmlns:xlink="http://www.w3.org/1999/xlink" x="0px" y="0px"
	 viewBox="0 0 60 60" style="enable-background:new 0 0 60 60;" xml:space="preserve">
<style type="text/css">
	.st0{fill:#FFFFFF;}
</style>
<g>
	<path class="st0" d="M57,5.37H3c-1.17,0-2.13,0.95-2.13,2.13v45c0,1.17,0.95,2.13,2.13,2.13h54c1.17,0,2.13-0.95,2.13-2.13v-45
		C59.13,6.33,58.17,5.37,57,5.37z M54.87,9.63v13.75H39H12H5.13V9.63H54.87z M5.13,50.37V27.63H12h27h15.87v22.75H5.13z"/>
	<path class="st0" d="M12,18.63h36c1.17,0,2.13-0.95,2.13-2.13s-0.95-2.13-2.13-2.13H12c-1.17,0-2.13,0.95-2.13,2.13
		S10.83,18.63,12,18.63z"/>
	<path class="st0" d="M48,32.37H12c-1.17,0-2.13,0.95-2.13,2.13v9c0,1.17,0.95,2.13,2.13,2.13h36c1.17,0,2.13-0.95,2.13-2.13v-9
		C50.13,33.33,49.17,32.37,48,32.37z M45.87,41.37H14.13v-4.75h31.75V41.37z"/>
</g>
</svg>
