<?xml version="1.0" encoding="utf-8"?>
<!-- Generator: Adobe Illustrator 27.2.0, SVG Export Plug-In . SVG Version: 6.00 Build 0)  -->
<svg version="1.1" id="Layer_1" xmlns="http://www.w3.org/2000/svg" xmlns:xlink="http://www.w3.org/1999/xlink" x="0px" y="0px"
	 viewBox="0 0 60 60" style="enable-background:new 0 0 60 60;" xml:space="preserve">
<style type="text/css">
	.st0{fill:#FFFFFF;}
</style>
<g id="Group_45" transform="translate(-2301.874 -933.874)">
	<g id="Rectangle_31">
		<path class="st0" d="M2327.37,988.5h-18c-1.17,0-2.13-0.95-2.13-2.13v-18c0-1.17,0.95-2.13,2.13-2.13h18
			c1.17,0,2.13,0.95,2.13,2.13v18C2329.5,987.55,2328.55,988.5,2327.37,988.5z M2311.5,984.25h13.75V970.5h-13.75V984.25z"/>
	</g>
	<g id="Rectangle_32">
		<path class="st0" d="M2354.37,988.5h-18c-1.17,0-2.13-0.95-2.13-2.13v-18c0-1.17,0.95-2.13,2.13-2.13h18
			c1.17,0,2.13,0.95,2.13,2.13v18C2356.5,987.55,2355.55,988.5,2354.37,988.5z M2338.5,984.25h13.75V970.5h-13.75V984.25z"/>
	</g>
	<g id="Rectangle_33">
		<path class="st0" d="M2327.37,961.5h-18c-1.17,0-2.13-0.95-2.13-2.13v-18c0-1.17,0.95-2.13,2.13-2.13h18
			c1.17,0,2.13,0.95,2.13,2.13v18C2329.5,960.55,2328.55,961.5,2327.37,961.5z M2311.5,957.25h13.75V943.5h-13.75V957.25z"/>
	</g>
	<g id="Rectangle_34">
		<path class="st0" d="M2354.37,961.5h-18c-1.17,0-2.13-0.95-2.13-2.13v-18c0-1.17,0.95-2.13,2.13-2.13h18
			c1.17,0,2.13,0.95,2.13,2.13v18C2356.5,960.55,2355.55,961.5,2354.37,961.5z M2338.5,957.25h13.75V943.5h-13.75V957.25z"/>
	</g>
</g>
</svg>
