<?xml version="1.0" encoding="utf-8"?>
<!-- Generator: Adobe Illustrator 27.2.0, SVG Export Plug-In . SVG Version: 6.00 Build 0)  -->
<svg version="1.1" id="Layer_1" xmlns="http://www.w3.org/2000/svg" xmlns:xlink="http://www.w3.org/1999/xlink" x="0px" y="0px"
	 viewBox="0 0 60 60" style="enable-background:new 0 0 60 60;" xml:space="preserve">
<style type="text/css">
	.st0{fill:#FFFFFF;}
</style>
<g id="Group_31" transform="translate(2.126 2.126)">
	<g id="Rectangle_24">
		<path class="st0" d="M32.37,16.5h-9c-1.17,0-2.13-0.95-2.13-2.13v-9c0-1.17,0.95-2.13,2.13-2.13h9c1.17,0,2.13,0.95,2.13,2.13v9
			C34.5,15.55,33.55,16.5,32.37,16.5z M25.5,12.25h4.75V7.5H25.5V12.25z"/>
	</g>
	<g id="Rectangle_25">
		<path class="st0" d="M23.37,34.5h-9c-1.17,0-2.13-0.95-2.13-2.13v-9c0-1.17,0.95-2.13,2.13-2.13h9c1.17,0,2.13,0.95,2.13,2.13v9
			C25.5,33.55,24.55,34.5,23.37,34.5z M16.5,30.25h4.75V25.5H16.5V30.25z"/>
	</g>
	<g id="Rectangle_26">
		<path class="st0" d="M41.37,34.5h-9c-1.17,0-2.13-0.95-2.13-2.13v-9c0-1.17,0.95-2.13,2.13-2.13h9c1.17,0,2.13,0.95,2.13,2.13v9
			C43.5,33.55,42.55,34.5,41.37,34.5z M34.5,30.25h4.75V25.5H34.5V30.25z"/>
	</g>
	<g id="Rectangle_27">
		<path class="st0" d="M14.37,52.5h-9c-1.17,0-2.13-0.95-2.13-2.13v-9c0-1.17,0.95-2.13,2.13-2.13h9c1.17,0,2.13,0.95,2.13,2.13v9
			C16.5,51.55,15.55,52.5,14.37,52.5z M7.5,48.25h4.75V43.5H7.5V48.25z"/>
	</g>
	<g id="Rectangle_28">
		<path class="st0" d="M32.37,52.5h-9c-1.17,0-2.13-0.95-2.13-2.13v-9c0-1.17,0.95-2.13,2.13-2.13h9c1.17,0,2.13,0.95,2.13,2.13v9
			C34.5,51.55,33.55,52.5,32.37,52.5z M25.5,48.25h4.75V43.5H25.5V48.25z"/>
	</g>
	<g id="Rectangle_29">
		<path class="st0" d="M50.37,52.5h-9c-1.17,0-2.13-0.95-2.13-2.13v-9c0-1.17,0.95-2.13,2.13-2.13h9c1.17,0,2.13,0.95,2.13,2.13v9
			C52.5,51.55,51.55,52.5,50.37,52.5z M43.5,48.25h4.75V43.5H43.5V48.25z"/>
	</g>
	<g id="Path_45">
		<path class="st0" d="M5.37,34.5c-1.17,0-2.13-0.95-2.13-2.13v-27c0-1.17,0.95-2.13,2.13-2.13h9c1.17,0,2.13,0.95,2.13,2.13
			S15.55,7.5,14.37,7.5H7.5v24.87C7.5,33.55,6.55,34.5,5.37,34.5z"/>
	</g>
	<g id="Path_46">
		<path class="st0" d="M50.37,34.5c-1.17,0-2.13-0.95-2.13-2.13V7.5h-6.87c-1.17,0-2.13-0.95-2.13-2.13s0.95-2.13,2.13-2.13h9
			c1.17,0,2.13,0.95,2.13,2.13v27C52.5,33.55,51.55,34.5,50.37,34.5z"/>
	</g>
</g>
</svg>
