<?xml version="1.0" encoding="utf-8"?>
<!-- Generator: Adobe Illustrator 27.2.0, SVG Export Plug-In . SVG Version: 6.00 Build 0)  -->
<svg version="1.1" id="Layer_1" xmlns="http://www.w3.org/2000/svg" xmlns:xlink="http://www.w3.org/1999/xlink" x="0px" y="0px"
	 viewBox="0 0 674.46 60" style="enable-background:new 0 0 674.46 60;" xml:space="preserve">
<style type="text/css">
	.st0{fill-rule:evenodd;clip-rule:evenodd;fill:#FFFFFF;}
	.st1{fill:#FFFFFF;}
</style>
<g id="VS_info_graph" transform="translate(-627.87 -1455)">
	<g id="Group_17" transform="translate(241.031 1361.224)">
		<path id="Path_26" class="st0" d="M397.88,97.46h64.74c3.2-0.08,5.86,2.46,5.94,5.66c0,0.09,0,0.18,0,0.28v40.15
			c-0.04,3.17-2.65,5.7-5.82,5.66c-0.04,0-0.08,0-0.12,0h-64.74c-3.17,0.11-5.82-2.37-5.93-5.53c0-0.04,0-0.08,0-0.12V103.4
			c-0.08-3.2,2.46-5.86,5.66-5.94C397.69,97.46,397.78,97.46,397.88,97.46z M460.08,100.85c1.23-0.02,2.24,0.97,2.26,2.2
			c0,0.02,0,0.04,0,0.06c0.1,1.14-0.74,2.16-1.88,2.26c-0.13,0.01-0.25,0.01-0.38,0c-1.23,0.02-2.24-0.97-2.26-2.2
			c0-0.02,0-0.04,0-0.06C457.9,101.9,458.86,100.93,460.08,100.85L460.08,100.85z M449.33,100.85c1.21,0.08,2.18,1.05,2.26,2.26
			c0.02,1.23-0.97,2.24-2.2,2.26c-0.02,0-0.04,0-0.06,0c-1.27,0.13-2.4-0.79-2.53-2.06c-0.01-0.07-0.01-0.13-0.01-0.2
			C446.91,101.81,448.02,100.82,449.33,100.85L449.33,100.85z M438.31,100.85c1.21,0.08,2.18,1.05,2.26,2.26
			c0.02,1.23-0.97,2.24-2.2,2.26c-0.02,0-0.04,0-0.06,0c-1.14,0.1-2.16-0.74-2.26-1.88c-0.01-0.13-0.01-0.25,0-0.38
			c-0.02-1.23,0.97-2.24,2.2-2.26C438.26,100.85,438.28,100.85,438.31,100.85L438.31,100.85z M466.3,108.48h-72.1v35.06
			c0.16,1.91,1.76,3.39,3.68,3.39h64.74c1.92-0.01,3.52-1.48,3.68-3.39L466.3,108.48z"/>
	</g>
	<g id="Group_19" transform="translate(321.007 1361.674)">
		<path id="Path_27" class="st1" d="M680.09,120.08L680.09,120.08c-0.99,0-1.8-0.81-1.8-1.8v-1.47c0-0.99-0.81-1.8-1.8-1.8h-10.8
			c-0.99,0-1.8,0.81-1.8,1.8v1.47c0,0.99-0.81,1.8-1.8,1.8l0,0c-0.99,0-1.8-0.81-1.8-1.8v-1.47c0-0.99-0.81-1.8-1.8-1.8h-1.47
			c-0.99,0-1.8-0.81-1.8-1.8l0,0c0-0.99,0.81-1.8,1.8-1.8h1.47c0.99,0,1.8-0.81,1.8-1.8v-1.47c0-0.99,0.81-1.8,1.8-1.8l0,0
			c0.99,0,1.8,0.81,1.8,1.8v1.47c0,0.99,0.81,1.8,1.8,1.8h10.8c0.99,0,1.8-0.81,1.8-1.8v-1.47c0-0.99,0.81-1.8,1.8-1.8h0.2
			c0.48,0,0.93,0.19,1.27,0.53l2.44,2.44c2.81,2.81,7.37,2.81,10.18,0c0,0,0,0,0,0l0,0c2.81-2.81,2.81-7.37,0-10.18c0,0,0,0,0,0l0,0
			c-2.81-2.81-7.37-2.81-10.18,0c0,0,0,0,0,0l-2.44,2.44c-0.34,0.34-0.79,0.53-1.27,0.53h-0.2c-0.99,0-1.8-0.81-1.8-1.8v-1.47
			c0-0.99-0.81-1.8-1.8-1.8h-10.8c-0.99,0-1.8,0.81-1.8,1.8v1.47c0,0.99-0.81,1.8-1.8,1.8l0,0c-0.99,0-1.8-0.81-1.8-1.8v-1.47
			c0-0.99-0.81-1.8-1.8-1.8h-10.8c-0.99,0-1.8,0.81-1.8,1.8v10.8c0,0.99,0.81,1.8,1.8,1.8h1.47c0.99,0,1.8,0.81,1.8,1.8l0,0
			c0,0.99-0.81,1.8-1.8,1.8h-1.47c-0.99,0-1.8,0.81-1.8,1.8v10.8c0,0.99,0.81,1.8,1.8,1.8h10.8c0.99,0,1.8-0.81,1.8-1.8v-1.47
			c0-0.99,0.81-1.8,1.8-1.8l0,0c0.99,0,1.8,0.81,1.8,1.8v1.47c0,0.99,0.81,1.8,1.8,1.8h10.8c0.99,0,1.8-0.81,1.8-1.8v-1.47
			c0-0.99,0.81-1.8,1.8-1.8l0,0c0.99,0,1.8,0.81,1.8,1.8v1.47c0,0.99,0.81,1.8,1.8,1.8h1.47c0.99,0,1.8,0.81,1.8,1.8l0,0
			c0,0.99-0.81,1.8-1.8,1.8h-1.47c-0.99,0-1.8,0.81-1.8,1.8v1.47c0,0.99-0.81,1.8-1.8,1.8l0,0c-0.99,0-1.8-0.81-1.8-1.8v-1.47
			c0-0.99-0.81-1.8-1.8-1.8h-10.8c-0.99,0-1.8,0.81-1.8,1.8v1.47c0,0.99-0.81,1.8-1.8,1.8h-0.2c-0.48,0-0.94-0.19-1.27-0.53
			l-2.44-2.44c-2.81-2.81-7.37-2.81-10.18,0c0,0,0,0,0,0l0,0c-2.81,2.81-2.81,7.37,0,10.18c0,0,0,0,0,0l0,0
			c2.81,2.81,7.37,2.81,10.18,0c0,0,0,0,0,0l2.44-2.44c0.34-0.34,0.8-0.53,1.27-0.53h0.2c0.99,0,1.8,0.81,1.8,1.8v1.47
			c0,0.99,0.81,1.8,1.8,1.8h10.8c0.99,0,1.8-0.81,1.8-1.8v-1.47c0-0.99,0.81-1.8,1.8-1.8l0,0c0.99,0,1.8,0.81,1.8,1.8v1.47
			c0,0.99,0.81,1.8,1.8,1.8h10.8c0.99,0,1.8-0.81,1.8-1.8v-10.8c0-0.99-0.81-1.8-1.8-1.8h-1.47c-0.99,0-1.8-0.81-1.8-1.8l0,0
			c0-0.99,0.81-1.8,1.8-1.8h1.47c0.99,0,1.8-0.81,1.8-1.8v-10.8c0-0.99-0.81-1.8-1.8-1.8h-10.8c-0.99,0-1.8,0.81-1.8,1.8v1.47
			C681.89,119.28,681.09,120.08,680.09,120.08z"/>
		<g id="Group_18">
			<path id="Path_28" class="st1" d="M642.29,109.61v-10.8c0-0.99-0.81-1.8-1.8-1.8h-10.8c-0.99,0-1.8,0.81-1.8,1.8v10.8
				c0,0.99,0.81,1.8,1.8,1.8h1.47c0.99,0,1.8,0.81,1.8,1.8l0,0c0,0.99-0.81,1.8-1.8,1.8h-1.47c-0.99,0-1.8,0.81-1.8,1.8v8.85
				c0,0.48-0.19,0.94-0.53,1.27l-5.41,5.41c-0.7,0.7-1.84,0.7-2.55,0c0,0,0,0,0,0l-1.04-1.04c-0.7-0.7-1.84-0.7-2.54,0l-1.04,1.04
				c-0.7,0.7-1.84,0.7-2.55,0c0,0,0,0,0,0l-5.41-5.41c-0.34-0.34-0.53-0.8-0.53-1.27v-8.85c0-0.99-0.81-1.8-1.8-1.8h-1.47
				c-0.99,0-1.8-0.81-1.8-1.8l0,0c0-0.99,0.81-1.8,1.8-1.8h1.47c0.99,0,1.8-0.81,1.8-1.8v-10.8c0-0.99-0.81-1.8-1.8-1.8h-10.8
				c-0.99,0-1.8,0.81-1.8,1.8v10.8c0,0.99,0.81,1.8,1.8,1.8h1.47c0.99,0,1.8,0.81,1.8,1.8l0,0c0,0.99-0.81,1.8-1.8,1.8h-1.47
				c-0.99,0-1.8,0.81-1.8,1.8v10.8c0,0.99,0.81,1.8,1.8,1.8h8.85c0.48,0,0.94,0.19,1.27,0.53l5.41,5.41c0.7,0.7,0.7,1.84,0,2.55
				c0,0,0,0,0,0l-1.04,1.04c-0.7,0.7-0.7,1.84,0,2.54l7.64,7.64c0.7,0.7,1.84,0.7,2.54,0l7.63-7.64c0.7-0.7,0.7-1.84,0-2.54
				l-1.04-1.04c-0.7-0.7-0.7-1.84,0-2.55c0,0,0,0,0,0l5.41-5.41c0.34-0.34,0.8-0.53,1.27-0.53h8.85c0.99,0,1.8-0.81,1.8-1.8v-10.8
				c0-0.99-0.81-1.8-1.8-1.8h-1.47c-0.99,0-1.8-0.81-1.8-1.8l0,0c0-0.99,0.81-1.8,1.8-1.8h1.47
				C641.48,111.41,642.29,110.61,642.29,109.61C642.29,109.61,642.29,109.61,642.29,109.61z"/>
			<path id="Rectangle_12" class="st1" d="M599.09,133.01L599.09,133.01c3.98,0,7.2,3.22,7.2,7.2l0,0c0,3.98-3.22,7.2-7.2,7.2l0,0
				c-3.98,0-7.2-3.22-7.2-7.2l0,0C591.89,136.23,595.11,133.01,599.09,133.01z"/>
			<path id="Rectangle_13" class="st1" d="M635.09,133.01L635.09,133.01c3.98,0,7.2,3.22,7.2,7.2l0,0c0,3.98-3.22,7.2-7.2,7.2l0,0
				c-3.98,0-7.2-3.22-7.2-7.2l0,0C627.89,136.23,631.11,133.01,635.09,133.01z"/>
		</g>
		<path id="Path_29" class="st1" d="M624.29,104.21L624.29,104.21c0-3.98-3.22-7.2-7.2-7.2l0,0l0,0c-3.98,0-7.2,3.22-7.2,7.2v0l0,0
			c0,2.5,1.29,4.82,3.42,6.13c1.01,0.6,1.64,1.69,1.66,2.87l0,0c-0.02,1.18-0.64,2.27-1.66,2.87c-2.12,1.31-3.42,3.63-3.42,6.13l0,0
			c0,3.98,3.22,7.2,7.2,7.2l0,0l0,0c3.98,0,7.2-3.22,7.2-7.2v0l0,0c0-2.5-1.29-4.82-3.42-6.13c-1.01-0.61-1.64-1.69-1.66-2.87l0,0
			c0.02-1.18,0.64-2.27,1.66-2.87C623,109.02,624.29,106.71,624.29,104.21z"/>
	</g>
	<g id="Group_21" transform="translate(442.309 1361.224)">
		<g id="Group_20">
			<path id="Path_30" class="st0" d="M784.24,97.46h64.74c3.2-0.08,5.86,2.46,5.94,5.66c0,0.09,0,0.18,0,0.28v40.15
				c-0.04,3.17-2.65,5.7-5.82,5.66c-0.04,0-0.08,0-0.12,0h-64.74c-3.17,0.11-5.82-2.37-5.94-5.53c0-0.04,0-0.08,0-0.12V103.4
				c-0.08-3.2,2.46-5.86,5.66-5.94C784.06,97.46,784.15,97.46,784.24,97.46z M846.44,100.85c1.23-0.02,2.24,0.97,2.26,2.2
				c0,0.02,0,0.04,0,0.06c0.1,1.14-0.74,2.16-1.88,2.26c-0.13,0.01-0.25,0.01-0.38,0c-1.23,0.02-2.24-0.97-2.26-2.2
				c0-0.02,0-0.04,0-0.06C844.26,101.9,845.23,100.93,846.44,100.85L846.44,100.85z M835.7,100.85c1.21,0.08,2.18,1.05,2.26,2.26
				c0.02,1.23-0.97,2.24-2.2,2.26c-0.02,0-0.04,0-0.06,0c-1.27,0.13-2.4-0.79-2.53-2.06c-0.01-0.07-0.01-0.13-0.01-0.2
				C833.28,101.81,834.39,100.82,835.7,100.85L835.7,100.85z M824.67,100.85c1.21,0.08,2.18,1.05,2.26,2.26
				c0.02,1.23-0.97,2.24-2.2,2.26c-0.02,0-0.04,0-0.06,0c-1.14,0.1-2.16-0.74-2.26-1.88c-0.01-0.13-0.01-0.25,0-0.38
				c-0.02-1.23,0.97-2.24,2.2-2.26C824.63,100.85,824.65,100.85,824.67,100.85L824.67,100.85z M852.66,108.48h-72.1v35.06
				c0.16,1.91,1.76,3.39,3.68,3.39h64.74c1.92-0.01,3.52-1.48,3.68-3.39L852.66,108.48z"/>
		</g>
		<path id="Path_31" class="st1" d="M805.13,117.88c1.84-0.88,3.76-1.6,5.72-2.15c1.87-0.5,3.79-0.79,5.72-0.86h0.06
			c1.94,0.07,3.86,0.35,5.73,0.86c2,0.55,3.95,1.28,5.82,2.19c0.38,0.19,0.62,0.58,0.62,1c0,5.72-0.74,10.14-2.58,13.82
			c-1.84,3.71-4.75,6.64-9.03,9.32c-0.37,0.23-0.85,0.22-1.21-0.02c-4.26-2.68-7.15-5.59-9.01-9.3c-1.82-3.67-2.58-8.09-2.58-13.82
			C804.42,118.46,804.7,118.05,805.13,117.88L805.13,117.88z M812.54,127.54c-0.43-0.43-0.43-1.13,0-1.56s1.13-0.43,1.56,0l0,0
			l2.13,2.13l4.08-4.07c0.42-0.44,1.12-0.46,1.56-0.04c0.44,0.42,0.46,1.12,0.04,1.56c-0.01,0.02-0.03,0.03-0.04,0.04l-4.87,4.86
			c-0.43,0.43-1.12,0.43-1.54,0c-0.01-0.01-0.01-0.01-0.02-0.02L812.54,127.54L812.54,127.54z M811.44,117.88
			c-1.65,0.44-3.26,1.02-4.81,1.74c0.06,5.04,0.74,8.93,2.34,12.14c1.76,3.33,4.41,6.12,7.64,8.05c3.23-1.94,5.86-4.72,7.62-8.05
			c1.6-3.21,2.3-7.09,2.36-12.14c-1.55-0.72-3.15-1.3-4.8-1.74c-1.69-0.47-3.43-0.74-5.18-0.8
			C814.87,117.14,813.13,117.41,811.44,117.88L811.44,117.88z"/>
	</g>
	<path id="Path_34" class="st1" d="M798.23,1486.1h19.41c0.05,0,0.1,0.03,0.12,0.08c0.02,0.05,0.01,0.1-0.03,0.14l-4.98,4.88
		c-0.05,0.05-0.05,0.13-0.01,0.18c0.03,0.03,0.06,0.04,0.1,0.04l4.67-0.13c0.03,0,0.06-0.01,0.09-0.04l6.75-6.59
		c0.03-0.02,0.04-0.06,0.04-0.09c0-0.04-0.01-0.07-0.04-0.09l-6.71-6.76c-0.03-0.03-0.06-0.04-0.1-0.04l-4.26,0.07l0,0
		c-0.05,0-0.1,0.03-0.12,0.08c-0.02,0.05-0.01,0.1,0.03,0.14l4.51,4.64c0.04,0.04,0.05,0.09,0.03,0.14
		c-0.02,0.05-0.07,0.08-0.12,0.08h-19.23c-0.05,0-0.09,0-0.13-0.01c-0.04,0-0.07,0.01-0.1,0.03c-0.03,0.03-0.04,0.06-0.04,0.1v3.02
		C798.1,1486.04,798.16,1486.1,798.23,1486.1L798.23,1486.1z"/>
	<path id="Path_35" class="st1" d="M1105.94,1486.1h19.41c0.05,0,0.1,0.03,0.12,0.08c0.02,0.05,0.01,0.1-0.03,0.14l-4.98,4.88
		c-0.05,0.05-0.05,0.13-0.01,0.18c0.03,0.03,0.06,0.04,0.1,0.04l4.67-0.13c0.03,0,0.06-0.01,0.09-0.04l6.75-6.59
		c0.03-0.02,0.04-0.06,0.04-0.09c0-0.04-0.01-0.07-0.04-0.09l-6.71-6.76c-0.03-0.03-0.06-0.04-0.1-0.04l-4.26,0.07l0,0
		c-0.05,0-0.1,0.03-0.12,0.08c-0.02,0.05-0.01,0.1,0.03,0.14l4.51,4.64c0.04,0.04,0.05,0.09,0.03,0.14
		c-0.02,0.05-0.07,0.08-0.12,0.08h-19.23c-0.05,0-0.09,0-0.13-0.01c-0.04,0-0.07,0.01-0.1,0.03c-0.03,0.03-0.04,0.06-0.04,0.1v3.02
		C1105.82,1486.04,1105.87,1486.1,1105.94,1486.1L1105.94,1486.1z"/>
</g>
</svg>
