<?xml version="1.0" encoding="utf-8"?>
<!-- Generator: Adobe Illustrator 27.2.0, SVG Export Plug-In . SVG Version: 6.00 Build 0)  -->
<svg version="1.1" id="Layer_1" xmlns="http://www.w3.org/2000/svg" xmlns:xlink="http://www.w3.org/1999/xlink" x="0px" y="0px"
	 viewBox="0 0 193.27 36.15" style="enable-background:new 0 0 193.27 36.15;" xml:space="preserve">
<style type="text/css">
	.st0{fill:#FFFFFF;}
</style>
<g>
	<path id="Path_7" class="st0" d="M76.34,6.05l-4.35,15.06h-0.06L67.61,6.05h-5.63l7.17,21.47h5.66l7.19-21.47H76.34z"/>
	<path id="Path_8" class="st0" d="M88.03,28.01c-4.65,0.14-8.53-3.51-8.67-8.16c0-0.13,0-0.26,0-0.4c0.05-4.79,3.98-8.63,8.77-8.58
		c4.69,0.05,8.49,3.83,8.58,8.52c0.1,4.66-3.59,8.52-8.25,8.62C88.31,28.02,88.17,28.02,88.03,28.01 M91.89,19.45
		c-0.11-2.13-1.93-3.77-4.06-3.66c-2.13,0.11-3.77,1.93-3.66,4.06c0.11,2.05,1.8,3.66,3.86,3.66c2.18-0.04,3.9-1.84,3.86-4.02
		C91.89,19.49,91.89,19.47,91.89,19.45"/>
	<path id="Path_9" class="st0" d="M98.26,6.05h4.82v3.66h-4.82V6.05z M98.26,11.42h4.82v16.1h-4.82V11.42z"/>
	<path id="Path_10" class="st0" d="M117.58,27.52v-1.74h-0.06c-0.9,1.48-2.52,2.26-4.82,2.26c-4.87,0-8.07-3.74-8.07-8.62
		c0-4.81,3.28-8.56,7.98-8.56c1.78-0.06,3.5,0.63,4.73,1.91V6.05h4.82v21.47H117.58z M117.61,19.4c-0.04-2.25-1.89-4.05-4.14-4.01
		c-2.2,0.03-3.98,1.81-4.01,4.01c-0.11,2.18,1.56,4.03,3.74,4.14c0.1,0,0.19,0.01,0.29,0c2.23,0.05,4.07-1.72,4.12-3.95
		C117.61,19.53,117.61,19.46,117.61,19.4"/>
	<rect id="Rectangle_2" x="122.74" y="29.69" class="st0" width="14.51" height="1.45"/>
	<path id="Path_11" class="st0" d="M146.24,11.62c0.13-1.58-1.05-2.97-2.63-3.09c-0.13-0.01-0.26-0.01-0.39-0.01
		c-1.58,0.06-2.84,1.35-2.87,2.93c0,1.51,1.01,2.38,3.1,3.05c4.64,1.48,6.35,3.22,6.35,6.93c0.13,3.46-2.56,6.37-6.02,6.5
		c-0.19,0.01-0.37,0.01-0.56,0c-3.83,0-6.56-2.73-6.61-6.76h3.13c0.03,2.32,1.39,3.89,3.48,3.89c1.86,0.05,3.41-1.41,3.46-3.27
		c0-0.12,0-0.24-0.01-0.35c0-1.57-0.7-2.55-2.99-3.34c-5.31-1.8-6.47-3.54-6.47-6.59c0.03-3.27,2.7-5.89,5.97-5.86
		c0.01,0,0.02,0,0.03,0c3.17-0.22,5.92,2.17,6.14,5.34c0.01,0.21,0.02,0.42,0.01,0.63L146.24,11.62z"/>
	<path id="Path_12" class="st0" d="M154.42,20.79c0.53,2.51,2.72,4.32,5.28,4.38c1.91,0.01,3.67-1.02,4.58-2.7h3.02
		c-1.17,3.26-4.25,5.44-7.72,5.45c-4.51-0.13-8.12-3.79-8.18-8.3c-0.18-4.58,3.39-8.44,7.98-8.61c0.04,0,0.08,0,0.12,0
		c4.52-0.08,8.25,3.53,8.33,8.05c0,0.07,0,0.15,0,0.22c0.01,0.5-0.02,1.01-0.09,1.51L154.42,20.79z M164.8,18.47
		c-0.29-2.87-2.85-4.96-5.71-4.67c-2.47,0.25-4.43,2.2-4.67,4.67H164.8z"/>
	<path id="Path_13" class="st0" d="M184.99,22.21c-1.42,4.35-6.09,6.73-10.44,5.31c-3.42-1.11-5.72-4.3-5.72-7.89
		c0-4.84,3.51-8.62,8.21-8.62c3.64-0.07,6.89,2.28,7.95,5.77h-3.34c-0.73-1.85-2.53-3.06-4.53-3.02c-3.16,0-5.28,2.41-5.28,5.69
		c0,3.19,2.18,5.72,5.22,5.72c1.98,0.04,3.78-1.13,4.55-2.96L184.99,22.21z"/>
	<path id="Path_2" class="st0" d="M50.08,15.94L50.08,15.94c-0.47,0-0.85-0.38-0.85-0.85v-0.7c0-0.47-0.38-0.85-0.85-0.85h-5.12
		c-0.47,0-0.85,0.38-0.85,0.85l0,0v0.7c0,0.47-0.38,0.85-0.85,0.85s-0.85-0.38-0.85-0.85v-0.7c0-0.47-0.38-0.85-0.85-0.85l0,0h-0.7
		c-0.47,0-0.85-0.38-0.85-0.85c0-0.47,0.38-0.85,0.85-0.85c0,0,0,0,0,0h0.7c0.47,0,0.85-0.38,0.85-0.85c0,0,0,0,0,0v-0.7
		c0-0.47,0.38-0.85,0.85-0.85s0.85,0.38,0.85,0.85v0.7c0,0.47,0.38,0.85,0.85,0.85l0,0h5.12c0.47,0,0.85-0.38,0.85-0.85v-0.7
		c0-0.47,0.38-0.85,0.85-0.85h0.09c0.23,0,0.44,0.09,0.6,0.25l1.15,1.16c1.33,1.33,3.49,1.33,4.83,0s1.33-3.49,0-4.83
		c-1.33-1.33-3.49-1.33-4.83,0c0,0,0,0,0,0l-1.15,1.16c-0.16,0.16-0.37,0.25-0.6,0.25h-0.09c-0.47,0-0.85-0.38-0.85-0.85v-0.7
		c0-0.47-0.38-0.85-0.85-0.85c0,0,0,0,0,0h-5.12c-0.47,0-0.85,0.38-0.85,0.85c0,0,0,0,0,0v0.7c0,0.47-0.38,0.85-0.85,0.85
		s-0.85-0.38-0.85-0.85v-0.7c0-0.47-0.38-0.85-0.85-0.85c0,0,0,0,0,0h-5.12c-0.47,0-0.85,0.38-0.85,0.85c0,0,0,0,0,0v5.12
		c0,0.47,0.38,0.85,0.85,0.85l0,0h0.7c0.47,0,0.85,0.38,0.85,0.85c0,0.47-0.38,0.85-0.85,0.85l0,0h-0.7c-0.47,0-0.85,0.38-0.85,0.85
		c0,0,0,0,0,0v5.12c0,0.47,0.38,0.85,0.85,0.85l0,0h5.12c0.47,0,0.85-0.38,0.85-0.85l0,0v-0.7c0-0.47,0.38-0.85,0.85-0.85
		s0.85,0.38,0.85,0.85v0.7c0,0.47,0.38,0.85,0.85,0.85l0,0h5.12c0.47,0,0.85-0.38,0.85-0.85v-0.7c0-0.47,0.38-0.85,0.85-0.85
		c0.47,0,0.85,0.38,0.85,0.85v0.7c0,0.47,0.38,0.85,0.85,0.85h0.7c0.47,0,0.85,0.38,0.85,0.85c0,0.47-0.38,0.85-0.85,0.85h-0.7
		c-0.47,0-0.85,0.38-0.85,0.85v0.7c0,0.47-0.38,0.85-0.85,0.85c-0.47,0-0.85-0.38-0.85-0.85v-0.7c0-0.47-0.38-0.85-0.85-0.85h-5.12
		c-0.47,0-0.85,0.38-0.85,0.85c0,0,0,0,0,0v0.7c0,0.47-0.38,0.85-0.85,0.85l0,0h-0.09c-0.23,0-0.44-0.09-0.6-0.25l-1.15-1.16
		c-1.33-1.33-3.49-1.33-4.83,0c-1.33,1.33-1.33,3.49,0,4.83s3.49,1.33,4.83,0c0,0,0,0,0,0l1.15-1.16c0.16-0.16,0.37-0.25,0.6-0.25
		h0.09c0.47,0,0.85,0.38,0.85,0.85c0,0,0,0,0,0v0.7c0,0.47,0.38,0.85,0.85,0.85l0,0h5.12c0.47,0,0.85-0.38,0.85-0.85v-0.7
		c0-0.47,0.38-0.85,0.85-0.85c0.47,0,0.85,0.38,0.85,0.85v0.7c0,0.47,0.38,0.85,0.85,0.85h5.12c0.47,0,0.85-0.38,0.85-0.85v-5.12
		c0-0.47-0.38-0.85-0.85-0.85h-0.7c-0.47,0-0.85-0.38-0.85-0.85c0-0.47,0.38-0.85,0.85-0.85h0.7c0.47,0,0.85-0.38,0.85-0.85v-5.12
		c0-0.47-0.38-0.85-0.85-0.85h-5.12c-0.47,0-0.85,0.38-0.85,0.85v0.7C50.93,15.56,50.55,15.94,50.08,15.94"/>
	<path id="Path_3" class="st0" d="M32.16,10.98V5.86c0-0.47-0.38-0.85-0.85-0.85h-5.12c-0.47,0-0.85,0.38-0.85,0.85c0,0,0,0,0,0
		v5.12c0,0.47,0.38,0.85,0.85,0.85l0,0h0.7c0.47,0,0.85,0.38,0.85,0.85c0,0.47-0.38,0.85-0.85,0.85h-0.7
		c-0.47,0-0.85,0.38-0.85,0.85l0,0v4.19c0,0.23-0.09,0.44-0.25,0.6l-2.57,2.57c-0.33,0.33-0.87,0.33-1.21,0c0,0,0,0,0,0l-0.49-0.49
		c-0.33-0.33-0.87-0.33-1.21,0c0,0,0,0,0,0l-0.49,0.49c-0.33,0.33-0.87,0.33-1.21,0c0,0,0,0,0,0l-2.56-2.56
		c-0.16-0.16-0.25-0.37-0.25-0.6v-4.2c0-0.47-0.38-0.85-0.85-0.85h-0.7c-0.47,0-0.85-0.38-0.85-0.85c0-0.47,0.38-0.85,0.85-0.85
		c0,0,0,0,0,0h0.7c0.47,0,0.85-0.38,0.85-0.85c0,0,0,0,0,0V5.86c0-0.47-0.38-0.85-0.85-0.85H9.13c-0.47,0-0.85,0.38-0.85,0.85v5.12
		c0,0.47,0.38,0.85,0.85,0.85c0,0,0,0,0,0h0.7c0.47,0,0.85,0.38,0.85,0.85c0,0.47-0.38,0.85-0.85,0.85h-0.7
		c-0.47,0-0.85,0.38-0.85,0.85c0,0,0,0,0,0v5.12c0,0.47,0.38,0.85,0.85,0.85h4.19c0.23,0,0.44,0.09,0.6,0.25l2.57,2.57
		c0.33,0.33,0.33,0.87,0,1.21L16,24.88c-0.33,0.33-0.33,0.87,0,1.21c0,0,0,0,0,0l3.62,3.62c0.33,0.33,0.87,0.33,1.21,0c0,0,0,0,0,0
		l3.62-3.62c0.33-0.33,0.33-0.87,0-1.21c0,0,0,0,0,0l-0.49-0.49c-0.33-0.33-0.33-0.87,0-1.21c0,0,0,0,0,0l2.56-2.57
		c0.16-0.16,0.37-0.25,0.6-0.25h4.19c0.47,0,0.85-0.38,0.85-0.85l0,0v-5.11c0-0.47-0.38-0.85-0.85-0.85l0,0h-0.7
		c-0.47,0-0.85-0.38-0.85-0.85c0-0.47,0.38-0.85,0.85-0.85c0,0,0,0,0,0h0.7C31.78,11.83,32.16,11.45,32.16,10.98
		C32.16,10.98,32.16,10.98,32.16,10.98"/>
	<path id="Path_4" class="st0" d="M11.69,28.89L11.69,28.89c1.88,0,3.41-1.53,3.41-3.41s-1.53-3.41-3.41-3.41s-3.41,1.53-3.41,3.41
		C8.28,27.36,9.8,28.89,11.69,28.89"/>
	<path id="Path_5" class="st0" d="M28.75,28.89L28.75,28.89c1.88,0,3.41-1.53,3.41-3.41c0-1.88-1.53-3.41-3.41-3.41
		c-1.88,0-3.41,1.53-3.41,3.41S26.87,28.89,28.75,28.89"/>
	<path id="Path_6" class="st0" d="M23.63,8.42L23.63,8.42c0-1.88-1.53-3.41-3.41-3.41s-3.41,1.53-3.41,3.41
		c0,1.18,0.61,2.28,1.62,2.9c0.75,0.43,1.01,1.4,0.58,2.15c-0.14,0.24-0.34,0.44-0.58,0.58c-1.6,0.99-2.1,3.09-1.11,4.7
		s3.09,2.1,4.7,1.11s2.1-3.09,1.11-4.7c-0.28-0.45-0.66-0.83-1.11-1.11c-0.75-0.43-1.01-1.4-0.58-2.15
		c0.14-0.24,0.34-0.44,0.58-0.58C23.02,10.7,23.63,9.6,23.63,8.42"/>
</g>
</svg>
