<?xml version="1.0" encoding="utf-8"?>
<!-- Generator: Adobe Illustrator 27.2.0, SVG Export Plug-In . SVG Version: 6.00 Build 0)  -->
<svg version="1.1" id="Layer_1" xmlns="http://www.w3.org/2000/svg" xmlns:xlink="http://www.w3.org/1999/xlink" x="0px" y="0px"
	 viewBox="0 0 60 60" style="enable-background:new 0 0 60 60;" xml:space="preserve">
<style type="text/css">
	.st0{fill:#FFFFFF;}
</style>
<g>
	<path class="st0" d="M52.5,32.37c-1.17,0-2.13,0.95-2.13,2.13v15.87H9.63V9.63H25.5c1.17,0,2.13-0.95,2.13-2.13
		s-0.95-2.13-2.13-2.13h-18c-1.17,0-2.13,0.95-2.13,2.13v45c0,1.17,0.95,2.13,2.13,2.13h45c1.17,0,2.13-0.95,2.13-2.13v-18
		C54.63,33.33,53.67,32.37,52.5,32.37z"/>
	<path class="st0" d="M54.58,7.08c-0.01-0.06-0.03-0.11-0.05-0.17c-0.02-0.08-0.04-0.15-0.07-0.23c-0.03-0.07-0.07-0.13-0.1-0.2
		c-0.03-0.06-0.05-0.11-0.09-0.17c-0.16-0.23-0.36-0.43-0.59-0.59c-0.05-0.03-0.11-0.06-0.16-0.09c-0.07-0.04-0.13-0.08-0.2-0.11
		c-0.07-0.03-0.15-0.05-0.22-0.07c-0.06-0.02-0.12-0.04-0.18-0.05c-0.14-0.03-0.28-0.04-0.42-0.04h-18c-1.17,0-2.13,0.95-2.13,2.13
		s0.95,2.13,2.13,2.13h12.87L15,42c-0.83,0.83-0.83,2.18,0,3.01c0.42,0.42,0.96,0.62,1.5,0.62S17.59,45.42,18,45l32.37-32.37V25.5
		c0,1.17,0.95,2.13,2.13,2.13s2.13-0.95,2.13-2.13v-18C54.63,7.36,54.61,7.22,54.58,7.08z"/>
</g>
</svg>
