<?xml version="1.0" encoding="utf-8"?>
<!-- Generator: Adobe Illustrator 25.4.8, SVG Export Plug-In . SVG Version: 6.00 Build 0)  -->
<svg version="1.1" id="Layer_1" xmlns="http://www.w3.org/2000/svg" xmlns:xlink="http://www.w3.org/1999/xlink" x="0px" y="0px"
	 viewBox="0 0 60 60" style="enable-background:new 0 0 60 60;" xml:space="preserve">
<style type="text/css">
	.st0{fill:#FFFFFF;}
</style>
<g>
	<path class="st0" d="M52.5,23.4c-1.2,0-2.1,1-2.1,2.1v24.9H9.6V9.6h24.9c1.2,0,2.1-0.9,2.1-2.1s-1-2.1-2.1-2.1h-27
		c-1.2,0-2.1,0.9-2.1,2.1v45c0,1.2,0.9,2.1,2.1,2.1h45c1.2,0,2.1-1,2.1-2.1v-27C54.6,24.3,53.7,23.4,52.5,23.4z"/>
	<path class="st0" d="M18.6,25.5c0-1.2-1-2.1-2.1-2.1s-2.1,1-2.1,2.1v18c0,0.1,0,0.3,0,0.4c0,0.1,0,0.1,0.1,0.2c0,0.1,0,0.2,0.1,0.2
		s0.1,0.1,0.1,0.2c0,0,0.1,0.1,0.1,0.2c0.2,0.2,0.4,0.4,0.6,0.6c0.1,0,0.1,0,0.1,0.1c0.1,0,0.1,0.1,0.2,0.1s0.1,0,0.2,0.1
		c0.1,0,0.1,0,0.2,0.1c0.1,0,0.3,0,0.4,0h18c1.2,0,2.1-1,2.1-2.1s-1-2.1-2.1-2.1H21.6L54,9c0.8-0.8,0.8-2.2,0-3
		c-0.8-0.8-2.2-0.8-3,0L18.6,38.4V25.5z"/>
</g>
</svg>
