<?xml version="1.0" encoding="utf-8"?>
<!-- Generator: Adobe Illustrator 27.2.0, SVG Export Plug-In . SVG Version: 6.00 Build 0)  -->
<svg version="1.1" id="Layer_1" xmlns="http://www.w3.org/2000/svg" xmlns:xlink="http://www.w3.org/1999/xlink" x="0px" y="0px"
	 viewBox="0 0 60 60" style="enable-background:new 0 0 60 60;" xml:space="preserve">
<style type="text/css">
	.st0{fill:#FFFFFF;}
</style>
<g id="Group_46" transform="translate(2423.126 983.126) rotate(180)">
	<g id="Rectangle_35">
		<path class="st0" d="M2397.63,928.5h18c1.17,0,2.13,0.95,2.13,2.13v18c0,1.17-0.95,2.13-2.13,2.13h-18
			c-1.17,0-2.13-0.95-2.13-2.13v-18C2395.5,929.45,2396.45,928.5,2397.63,928.5z M2413.5,932.75h-13.75v13.75h13.75V932.75z"/>
	</g>
	<g id="Rectangle_36">
		<path class="st0" d="M2397.63,955.5h18c1.17,0,2.13,0.95,2.13,2.13v18c0,1.17-0.95,2.13-2.13,2.13h-18
			c-1.17,0-2.13-0.95-2.13-2.13v-18C2395.5,956.45,2396.45,955.5,2397.63,955.5z M2413.5,959.75h-13.75v13.75h13.75V959.75z"/>
	</g>
	<g id="Ellipse_7">
		<path class="st0" d="M2379.63,955.5c6.13,0,11.13,4.99,11.13,11.13s-4.99,11.13-11.13,11.13s-11.13-4.99-11.13-11.13
			S2373.49,955.5,2379.63,955.5z M2379.63,973.5c3.79,0,6.87-3.08,6.87-6.87s-3.08-6.87-6.87-6.87s-6.87,3.08-6.87,6.87
			S2375.84,973.5,2379.63,973.5z"/>
	</g>
	<g id="Ellipse_8">
		<path class="st0" d="M2379.63,928.5c6.13,0,11.13,4.99,11.13,11.13s-4.99,11.13-11.13,11.13s-11.13-4.99-11.13-11.13
			S2373.49,928.5,2379.63,928.5z M2379.63,946.5c3.79,0,6.87-3.08,6.87-6.87s-3.08-6.87-6.87-6.87s-6.87,3.08-6.87,6.87
			S2375.84,946.5,2379.63,946.5z"/>
	</g>
</g>
</svg>
